<mxfile host="app.diagrams.net" modified="2023-05-29T10:20:14.669Z" agent="Mozilla/5.0 (Windows NT 10.0; Win64; x64) AppleWebKit/537.36 (KHTML, like Gecko) Chrome/113.0.0.0 Safari/537.36" etag="yTGIdS2M4cwzAHhn4h62" version="21.3.5" type="github">
  <diagram name="PÃ¡gina-1" id="rHbrp_x7v87Tb8cUYKFK">
    <mxGraphModel dx="954" dy="616" grid="1" gridSize="10" guides="1" tooltips="1" connect="1" arrows="1" fold="1" page="1" pageScale="1" pageWidth="827" pageHeight="1169" math="0" shadow="0">
      <root>
        <mxCell id="0" />
        <mxCell id="1" parent="0" />
        <mxCell id="A6DE0csZ05J6eWKyjmHg-22" style="edgeStyle=orthogonalEdgeStyle;rounded=0;orthogonalLoop=1;jettySize=auto;html=1;" edge="1" parent="1" source="A6DE0csZ05J6eWKyjmHg-1" target="A6DE0csZ05J6eWKyjmHg-13">
          <mxGeometry relative="1" as="geometry">
            <Array as="points">
              <mxPoint x="385" y="200" />
              <mxPoint x="385" y="270" />
            </Array>
          </mxGeometry>
        </mxCell>
        <mxCell id="A6DE0csZ05J6eWKyjmHg-1" value="videogmae" style="swimlane;fontStyle=0;childLayout=stackLayout;horizontal=1;startSize=26;fillColor=#f5f5f5;horizontalStack=0;resizeParent=1;resizeParentMax=0;resizeLast=0;collapsible=1;marginBottom=0;whiteSpace=wrap;html=1;strokeColor=#666666;fontColor=#333333;fillStyle=zigzag-line;" vertex="1" parent="1">
          <mxGeometry x="130" y="160" width="140" height="176" as="geometry">
            <mxRectangle x="130" y="160" width="100" height="30" as="alternateBounds" />
          </mxGeometry>
        </mxCell>
        <mxCell id="A6DE0csZ05J6eWKyjmHg-2" value="id:long" style="text;strokeColor=#d6b656;fillColor=#fff2cc;align=left;verticalAlign=top;spacingLeft=4;spacingRight=4;overflow=hidden;rotatable=0;points=[[0,0.5],[1,0.5]];portConstraint=eastwest;whiteSpace=wrap;html=1;" vertex="1" parent="A6DE0csZ05J6eWKyjmHg-1">
          <mxGeometry y="26" width="140" height="26" as="geometry" />
        </mxCell>
        <mxCell id="A6DE0csZ05J6eWKyjmHg-3" value="name:varchar" style="text;align=left;verticalAlign=top;spacingLeft=4;spacingRight=4;overflow=hidden;rotatable=0;points=[[0,0.5],[1,0.5]];portConstraint=eastwest;whiteSpace=wrap;html=1;fillColor=#f5f5f5;fontColor=#333333;strokeColor=#666666;fontStyle=0" vertex="1" parent="A6DE0csZ05J6eWKyjmHg-1">
          <mxGeometry y="52" width="140" height="26" as="geometry" />
        </mxCell>
        <mxCell id="A6DE0csZ05J6eWKyjmHg-5" value="category:varchar" style="text;strokeColor=#666666;fillColor=#f5f5f5;align=left;verticalAlign=top;spacingLeft=4;spacingRight=4;overflow=hidden;rotatable=0;points=[[0,0.5],[1,0.5]];portConstraint=eastwest;whiteSpace=wrap;html=1;fontColor=#333333;" vertex="1" parent="A6DE0csZ05J6eWKyjmHg-1">
          <mxGeometry y="78" width="140" height="30" as="geometry" />
        </mxCell>
        <mxCell id="A6DE0csZ05J6eWKyjmHg-4" value="description:varchar" style="text;strokeColor=#666666;fillColor=#f5f5f5;align=left;verticalAlign=top;spacingLeft=4;spacingRight=4;overflow=hidden;rotatable=0;points=[[0,0.5],[1,0.5]];portConstraint=eastwest;whiteSpace=wrap;html=1;fontColor=#333333;" vertex="1" parent="A6DE0csZ05J6eWKyjmHg-1">
          <mxGeometry y="108" width="140" height="22" as="geometry" />
        </mxCell>
        <mxCell id="A6DE0csZ05J6eWKyjmHg-7" value="rate:integer" style="text;strokeColor=#666666;fillColor=#f5f5f5;align=left;verticalAlign=top;spacingLeft=4;spacingRight=4;overflow=hidden;rotatable=0;points=[[0,0.5],[1,0.5]];portConstraint=eastwest;whiteSpace=wrap;html=1;fontColor=#333333;" vertex="1" parent="A6DE0csZ05J6eWKyjmHg-1">
          <mxGeometry y="130" width="140" height="20" as="geometry" />
        </mxCell>
        <mxCell id="A6DE0csZ05J6eWKyjmHg-12" value="createdAt:DateTime" style="text;strokeColor=#666666;fillColor=#f5f5f5;align=left;verticalAlign=top;spacingLeft=4;spacingRight=4;overflow=hidden;rotatable=0;points=[[0,0.5],[1,0.5]];portConstraint=eastwest;whiteSpace=wrap;html=1;fontColor=#333333;" vertex="1" parent="A6DE0csZ05J6eWKyjmHg-1">
          <mxGeometry y="150" width="140" height="26" as="geometry" />
        </mxCell>
        <mxCell id="A6DE0csZ05J6eWKyjmHg-13" value="Comments" style="swimlane;fontStyle=0;childLayout=stackLayout;horizontal=1;startSize=26;fillColor=#f5f5f5;horizontalStack=0;resizeParent=1;resizeParentMax=0;resizeLast=0;collapsible=1;marginBottom=0;whiteSpace=wrap;html=1;fontColor=#333333;strokeColor=#666666;" vertex="1" parent="1">
          <mxGeometry x="500" y="160" width="140" height="130" as="geometry" />
        </mxCell>
        <mxCell id="A6DE0csZ05J6eWKyjmHg-14" value="id:long" style="text;strokeColor=#d6b656;fillColor=#fff2cc;align=left;verticalAlign=top;spacingLeft=4;spacingRight=4;overflow=hidden;rotatable=0;points=[[0,0.5],[1,0.5]];portConstraint=eastwest;whiteSpace=wrap;html=1;" vertex="1" parent="A6DE0csZ05J6eWKyjmHg-13">
          <mxGeometry y="26" width="140" height="26" as="geometry" />
        </mxCell>
        <mxCell id="A6DE0csZ05J6eWKyjmHg-15" value="text:varchar" style="text;strokeColor=#666666;fillColor=#f5f5f5;align=left;verticalAlign=top;spacingLeft=4;spacingRight=4;overflow=hidden;rotatable=0;points=[[0,0.5],[1,0.5]];portConstraint=eastwest;whiteSpace=wrap;html=1;fontColor=#333333;" vertex="1" parent="A6DE0csZ05J6eWKyjmHg-13">
          <mxGeometry y="52" width="140" height="26" as="geometry" />
        </mxCell>
        <mxCell id="A6DE0csZ05J6eWKyjmHg-16" value="createdAt:DateTime" style="text;strokeColor=#666666;fillColor=#f5f5f5;align=left;verticalAlign=top;spacingLeft=4;spacingRight=4;overflow=hidden;rotatable=0;points=[[0,0.5],[1,0.5]];portConstraint=eastwest;whiteSpace=wrap;html=1;fontColor=#333333;" vertex="1" parent="A6DE0csZ05J6eWKyjmHg-13">
          <mxGeometry y="78" width="140" height="26" as="geometry" />
        </mxCell>
        <mxCell id="A6DE0csZ05J6eWKyjmHg-17" value="idVideogame:long" style="text;strokeColor=#82b366;fillColor=#d5e8d4;align=left;verticalAlign=top;spacingLeft=4;spacingRight=4;overflow=hidden;rotatable=0;points=[[0,0.5],[1,0.5]];portConstraint=eastwest;whiteSpace=wrap;html=1;" vertex="1" parent="A6DE0csZ05J6eWKyjmHg-13">
          <mxGeometry y="104" width="140" height="26" as="geometry" />
        </mxCell>
        <mxCell id="A6DE0csZ05J6eWKyjmHg-26" value="n" style="text;align=center;fontStyle=1;verticalAlign=middle;spacingLeft=3;spacingRight=3;strokeColor=none;rotatable=0;points=[[0,0.5],[1,0.5]];portConstraint=eastwest;html=1;" vertex="1" parent="1">
          <mxGeometry x="430" y="250" width="80" height="26" as="geometry" />
        </mxCell>
        <mxCell id="A6DE0csZ05J6eWKyjmHg-27" value="1" style="text;align=center;fontStyle=1;verticalAlign=middle;spacingLeft=3;spacingRight=3;strokeColor=none;rotatable=0;points=[[0,0.5],[1,0.5]];portConstraint=eastwest;html=1;" vertex="1" parent="1">
          <mxGeometry x="240" y="200" width="80" height="26" as="geometry" />
        </mxCell>
        <mxCell id="A6DE0csZ05J6eWKyjmHg-28" value="" style="ellipse;html=1;shape=endState;fillColor=#000000;strokeColor=#ff0000;" vertex="1" parent="1">
          <mxGeometry height="260" as="geometry" />
        </mxCell>
      </root>
    </mxGraphModel>
  </diagram>
</mxfile>
